<?xml version="1.0" standalone="no"?>
<!DOCTYPE svg PUBLIC "-//W3C//DTD SVG 20010904//EN"
 "http://www.w3.org/TR/2001/REC-SVG-20010904/DTD/svg10.dtd">
<svg version="1.0" xmlns="http://www.w3.org/2000/svg"
 width="700.000000pt" height="700.000000pt" viewBox="0 0 700.000000 700.000000"
 preserveAspectRatio="xMidYMid meet">
<metadata>
Created by potrace 1.11, written by Peter Selinger 2001-2013
</metadata>
<g transform="translate(0.000000,700.000000) scale(0.100000,-0.100000)"
fill="#000000" stroke="none">
<path d="M1806 6985 c-76 -40 -242 -268 -321 -440 -52 -113 -95 -262 -111
-375 -4 -30 -9 -66 -11 -80 -5 -34 -5 -240 0 -265 3 -11 8 -47 11 -80 14 -114
57 -263 113 -385 95 -206 271 -431 350 -446 71 -13 138 44 137 118 -1 39 -27
80 -90 146 -75 77 -179 259 -223 387 -141 414 -53 844 244 1192 69 81 82 117
61 168 -25 60 -103 89 -160 60z"/>
<path d="M5083 6981 c-80 -50 -75 -139 13 -228 64 -64 159 -208 204 -309 97
-220 123 -432 86 -704 -11 -73 -52 -201 -96 -297 -22 -47 -99 -175 -110 -183
-4 -3 -11 -12 -16 -21 -5 -9 -31 -42 -59 -73 -27 -31 -58 -71 -67 -87 -44 -81
33 -182 126 -165 77 15 257 244 347 442 69 152 103 278 125 464 5 44 5 245 0
285 -27 205 -91 401 -182 558 -43 75 -116 181 -145 210 -8 8 -30 31 -50 53
-51 56 -62 64 -105 69 -28 4 -48 0 -71 -14z"/>
<path d="M3385 6779 c-326 -52 -575 -261 -678 -569 -34 -100 -48 -271 -32
-375 19 -122 69 -249 136 -348 37 -54 40 -63 31 -91 -10 -32 -104 -299 -162
-461 -17 -49 -40 -115 -50 -145 -11 -30 -26 -75 -35 -100 -35 -97 -202 -572
-333 -945 -39 -110 -81 -231 -95 -270 -26 -71 -171 -486 -298 -850 -39 -110
-74 -209 -79 -220 -5 -11 -32 -87 -60 -170 -29 -82 -77 -220 -107 -305 -30
-85 -59 -166 -63 -180 -5 -14 -45 -128 -90 -255 -45 -126 -90 -255 -100 -285
-11 -30 -44 -125 -74 -210 -30 -85 -53 -157 -51 -160 2 -4 -101 -6 -228 -5
-128 0 -237 -1 -244 -3 -9 -3 -12 -102 -12 -418 l0 -414 2739 0 2739 0 -2 417
-2 417 -230 0 c-126 1 -235 4 -241 8 -7 4 -14 18 -17 30 -5 23 -60 185 -97
283 -23 62 -58 161 -150 425 -71 205 -111 318 -155 440 -13 36 -55 155 -93
265 -39 110 -101 286 -137 390 -37 105 -96 271 -130 370 -35 99 -86 245 -115
325 -29 80 -56 156 -60 170 -4 14 -36 104 -70 200 -34 96 -79 225 -100 285
-21 61 -65 187 -98 280 -158 448 -375 1063 -384 1091 -9 28 -6 37 30 90 132
193 177 442 121 669 -87 354 -411 618 -774 629 -55 2 -122 0 -150 -5z m356
-1689 c9 -30 101 -302 204 -605 103 -302 209 -617 236 -700 28 -82 55 -160 61
-172 6 -13 8 -26 5 -29 -9 -10 -1327 487 -1327 500 0 6 35 101 78 211 43 110
134 345 203 522 113 293 126 322 144 316 37 -12 249 -10 300 3 27 6 56 11 64
11 7 -1 22 -27 32 -57z m-1614 -3555 c12 -3 30 -8 40 -10 30 -6 113 -25 198
-45 68 -16 500 -115 545 -125 8 -2 47 -11 85 -20 39 -9 78 -18 87 -20 10 -2
127 -29 260 -60 134 -32 250 -58 258 -60 8 -2 85 -19 170 -39 85 -20 164 -38
175 -41 11 -2 90 -20 175 -40 203 -47 192 -45 215 -49 11 -2 43 -10 70 -16 28
-6 57 -13 65 -15 8 -2 47 -11 85 -20 39 -9 77 -18 85 -20 104 -22 493 -115
497 -119 1 -1 -740 -2 -1647 -2 -937 0 -1650 4 -1650 9 0 5 23 79 52 165 28
86 53 162 54 167 1 6 30 91 63 190 34 99 61 181 61 183 0 3 7 2 57 -13z"/>
<path d="M2234 6627 c-105 -91 -212 -278 -253 -442 -41 -166 -33 -364 20 -525
47 -143 145 -301 232 -375 33 -29 49 -35 85 -35 38 0 49 5 78 36 28 29 34 43
34 79 0 38 -7 52 -60 117 -69 83 -132 202 -157 298 -27 98 -24 273 6 370 36
118 71 180 169 300 53 66 58 117 14 169 -23 28 -36 34 -77 38 -46 4 -53 2 -91
-30z"/>
<path d="M4612 6633 c-22 -19 -35 -40 -39 -65 -8 -51 1 -77 42 -123 234 -264
257 -631 57 -910 -20 -27 -40 -53 -44 -56 -31 -21 -58 -77 -58 -117 0 -37 6
-50 34 -78 29 -29 41 -34 80 -34 42 0 52 5 96 46 56 52 145 183 183 267 28 63
62 176 73 247 10 60 10 212 1 279 -26 189 -120 385 -247 512 -49 50 -60 56
-100 58 -36 1 -51 -4 -78 -26z"/>
</g>
</svg>
