<?xml version="1.0" encoding="iso-8859-1"?>
<!-- Generator: Adobe Illustrator 19.0.0, SVG Export Plug-In . SVG Version: 6.00 Build 0)  -->
<svg version="1.1" id="Layer_1" xmlns="http://www.w3.org/2000/svg" xmlns:xlink="http://www.w3.org/1999/xlink" x="0px" y="0px"
	 viewBox="0 0 512.004 512.004" style="enable-background:new 0 0 512.004 512.004;" xml:space="preserve">
<path style="fill:#8697CB;" d="M303.267,114.977c-7.918,9.712-18.789,16.881-31.219,20.27l39.129,115.443l-98.083-36.785
	l30.113-77.83c-13.798-2.944-25.853-10.549-34.46-21.097L90.498,451.038h43.554l17.421-52.264l226.479,52.264h43.554
	L303.267,114.977z"/>
<g>
	<polygon style="fill:#5E70A0;" points="174.008,331.161 321.211,289.297 202.771,244.881 	"/>
	<polygon style="fill:#5E70A0;" points="365.374,413.286 162.266,366.413 334.399,320.368 	"/>
	<path style="fill:#5E70A0;" d="M316.977,76.467c0,33.676-27.299,60.975-60.975,60.975s-60.975-27.299-60.975-60.975
		s27.299-60.975,60.975-60.975S316.977,42.792,316.977,76.467"/>
</g>
<g>
	<path style="fill:#D8DCDC;" d="M135.951,152.93c-2.23,0-4.46-0.854-6.158-2.552c-40.758-40.758-40.758-107.072,0-147.83
		c3.406-3.397,8.911-3.397,12.317,0c3.406,3.406,3.406,8.92,0,12.317c-33.963,33.972-33.963,89.233,0,123.196
		c3.406,3.406,3.406,8.911,0,12.317C140.411,152.076,138.181,152.93,135.951,152.93"/>
	<path style="fill:#D8DCDC;" d="M376.062,152.93c-2.23,0-4.46-0.854-6.159-2.552c-3.406-3.406-3.406-8.911,0-12.317
		c33.963-33.963,33.963-89.224,0-123.196c-3.406-3.397-3.406-8.911,0-12.317c3.406-3.397,8.911-3.397,12.317,0
		c40.758,40.758,40.758,107.072,0,147.83C380.522,152.076,378.292,152.93,376.062,152.93"/>
	<path style="fill:#D8DCDC;" d="M169.348,128.296c-2.23,0-4.46-0.854-6.159-2.552c-27.169-27.169-27.169-71.385,0-98.553
		c3.397-3.406,8.911-3.406,12.317,0c3.406,3.397,3.406,8.911,0,12.317c-20.374,20.374-20.374,53.536,0,73.919
		c3.406,3.406,3.406,8.911,0,12.317C173.808,127.443,171.578,128.296,169.348,128.296"/>
	<path style="fill:#D8DCDC;" d="M342.674,128.296c-2.23,0-4.46-0.854-6.159-2.552c-3.406-3.406-3.406-8.911,0-12.317
		c20.374-20.383,20.374-53.545,0-73.919c-3.406-3.406-3.406-8.92,0-12.317c3.406-3.406,8.911-3.406,12.317,0
		c27.169,27.169,27.169,71.385,0,98.553C347.134,127.443,344.904,128.296,342.674,128.296"/>
</g>
<g>
	<path style="fill:#8697CB;" d="M256.002,111.31c-4.808,0-8.711-3.894-8.711-8.711c0-4.817,3.902-8.711,8.711-8.711
		c9.608,0,17.421-7.814,17.421-17.421c0-4.817,3.902-8.711,8.711-8.711s8.711,3.894,8.711,8.711
		C290.845,95.683,275.218,111.31,256.002,111.31"/>
	<path style="fill:#8697CB;" d="M229.87,85.178c-4.808,0-8.711-3.894-8.711-8.711c0-19.216,15.627-34.843,34.843-34.843
		c4.808,0,8.711,3.894,8.711,8.711s-3.902,8.711-8.711,8.711c-9.608,0-17.421,7.814-17.421,17.421
		C238.581,81.284,234.678,85.178,229.87,85.178"/>
</g>
<polygon style="fill:#D8DCDC;" points="55.655,512.004 456.349,512.004 456.349,451.029 55.655,451.029 "/>
<g>
</g>
<g>
</g>
<g>
</g>
<g>
</g>
<g>
</g>
<g>
</g>
<g>
</g>
<g>
</g>
<g>
</g>
<g>
</g>
<g>
</g>
<g>
</g>
<g>
</g>
<g>
</g>
<g>
</g>
</svg>
